<?xml version="1.0" encoding="UTF-8"?>
<svg xmlns="http://www.w3.org/2000/svg" viewBox="0 0 124.23 40.38">
  <g>
    <g>
      <path
        d="M1.39,25.35c1.25.77,3.94,1.63,5.9,1.63,1.73,0,2.45-.43,2.45-1.34s-.58-1.34-2.93-2.21c-4.9-1.82-6.29-4.61-6.29-7.1,0-4.61,3.74-8.06,9.65-8.06,2.64,0,4.94.58,6.38,1.25l-1.3,5.76c-1.06-.53-2.93-1.2-4.66-1.2-1.44,0-2.26.48-2.26,1.39,0,.82.67,1.3,3.26,2.3,4.42,1.68,5.9,4.13,5.95,7.25,0,4.61-3.5,7.78-10.22,7.78-2.88,0-5.71-.67-7.34-1.58l1.39-5.86Z"
        fill="currentColor" />
      <path d="M18.58,27.84L31.58,7.1v-.14h-11.76V0h22.13v5.14l-12.53,20.11v.14h12.67v6.96h-23.52v-4.51Z"
        fill="currentColor" />
      <path
        d="M65.04,26.69c0,2.26.1,4.32.38,5.66h-7.44l-.43-2.16h-.14c-1.54,1.92-3.79,2.64-6.24,2.64-4.46,0-7.39-3.36-7.39-7.39,0-6.34,5.71-9.02,12.96-9.07v-.29c0-1.06-.86-2.11-3.7-2.11-2.35,0-4.66.77-6.19,1.68l-1.44-5.33c1.49-.77,4.7-2.06,9.26-2.06,8.16,0,10.37,4.9,10.37,10.42v8.02ZM57.02,21.46c-3.17,0-5.23.96-5.23,3.17,0,1.63,1.06,2.4,2.35,2.4,1.1,0,2.35-.72,2.74-1.92.1-.34.14-.77.14-1.15v-2.5Z"
        fill="currentColor" />
      <path
        d="M67.1,16.61c0-2.93-.1-5.62-.19-7.87h7.01l.38,2.88h.14c.96-1.34,3.02-3.36,6.62-3.36,2.93,0,5.09,1.39,6,3.55h.1c.86-1.1,1.87-2.02,3.02-2.64,1.15-.58,2.45-.91,3.94-.91,4.94,0,7.49,3.74,7.49,9.98v14.11h-8.11v-12.87c0-2.78-.67-4.51-2.45-4.51-1.25,0-2.06.77-2.45,1.87-.14.38-.19,1.1-.19,1.63v13.87h-8.11v-13.35c0-2.21-.58-4.03-2.45-4.03-1.3,0-2.02.91-2.4,1.78-.19.48-.24,1.1-.24,1.73v13.87h-8.11v-15.75Z"
        fill="currentColor" />
    </g>
    <path
      d="M122.94,15.56h-10.99l-.48,3.7c.58-.05,1.06-.05,1.54-.05,2.59.05,5.81.72,7.97,2.45s3.26,4.22,3.26,7.63c0,5.81-4.75,11.09-13.34,11.09-3.46,0-6.53-.77-8.21-1.54l1.34-6.29c1.34.62,3.89,1.34,6.34,1.34,2.78,0,5.47-1.2,5.47-4.08,0-3.17-2.69-4.61-8.06-4.61-1.44,0-2.45.05-3.55.24l1.92-16.75h16.8v6.86Z"
      style="fill: #86ba40;" />
  </g>
</svg>